<svg xmlns="http://www.w3.org/2000/svg" width="478" height="478" viewBox="0 0 478 478">
  <path fill="#1EB95A" d="M460.804,0 L17.071,0 C7.645,0 0.004,7.641 0.004,17.067 L0.004,102.4 C0.004,107.236 2.058,111.845 5.653,115.081 L170.671,263.595 L170.671,460.8 C170.667,470.226 178.304,477.87 187.73,477.875001 C190.381,477.875001 192.996,477.26 195.367,476.075 L297.767,424.875 C303.553,421.984 307.208,416.069 307.205,409.6 L307.205,263.595 L472.223,115.115 C475.827,111.872 477.881,107.249 477.872029,102.4 L477.872029,17.067 C477.872029,7.641 470.23,0 460.804,0 Z M443.737,94.805 L278.72,243.285 C275.116,246.528 273.063,251.151 273.071,256 L273.071,399.053 L204.804,433.186 L204.804,256 C204.803,251.164 202.75,246.555 199.155,243.32 L34.137,94.805 L34.137,34.133 L443.737,34.133 L443.737,94.805 Z"/>
</svg>
